<svg width="50" height="50" viewBox="0 0 50 50" fill="none" xmlns="http://www.w3.org/2000/svg">
<g clip-path="url(#clip0)">
<path d="M25 4.50625C31.675 4.50625 32.4667 4.53125 35.1042 4.65208C41.8792 4.96042 45.0437 8.175 45.3521 14.9C45.4729 17.5354 45.4958 18.3271 45.4958 25.0021C45.4958 31.6792 45.4708 32.4688 45.3521 35.1042C45.0417 41.8229 41.8854 45.0437 35.1042 45.3521C32.4667 45.4729 31.6792 45.4979 25 45.4979C18.325 45.4979 17.5333 45.4729 14.8979 45.3521C8.10625 45.0417 4.95833 41.8125 4.65 35.1021C4.52917 32.4667 4.50417 31.6771 4.50417 25C4.50417 18.325 4.53125 17.5354 4.65 14.8979C4.96042 8.175 8.11667 4.95833 14.8979 4.65C17.5354 4.53125 18.325 4.50625 25 4.50625ZM25 0C18.2104 0 17.3604 0.0291667 14.6937 0.15C5.61458 0.566667 0.56875 5.60417 0.152083 14.6917C0.0291667 17.3604 0 18.2104 0 25C0 31.7896 0.0291667 32.6417 0.15 35.3083C0.566667 44.3875 5.60417 49.4333 14.6917 49.85C17.3604 49.9708 18.2104 50 25 50C31.7896 50 32.6417 49.9708 35.3083 49.85C44.3792 49.4333 49.4375 44.3958 49.8479 35.3083C49.9708 32.6417 50 31.7896 50 25C50 18.2104 49.9708 17.3604 49.85 14.6937C49.4417 5.62292 44.3979 0.56875 35.3104 0.152083C32.6417 0.0291667 31.7896 0 25 0V0ZM25 12.1625C17.9104 12.1625 12.1625 17.9104 12.1625 25C12.1625 32.0896 17.9104 37.8396 25 37.8396C32.0896 37.8396 37.8375 32.0917 37.8375 25C37.8375 17.9104 32.0896 12.1625 25 12.1625ZM25 33.3333C20.3979 33.3333 16.6667 29.6042 16.6667 25C16.6667 20.3979 20.3979 16.6667 25 16.6667C29.6021 16.6667 33.3333 20.3979 33.3333 25C33.3333 29.6042 29.6021 33.3333 25 33.3333ZM38.3458 8.65625C36.6875 8.65625 35.3438 10 35.3438 11.6562C35.3438 13.3125 36.6875 14.6562 38.3458 14.6562C40.0021 14.6562 41.3437 13.3125 41.3437 11.6562C41.3437 10 40.0021 8.65625 38.3458 8.65625Z" fill="white"/>
</g>
<defs>
<clipPath id="clip0">
<rect width="50" height="50" fill="white"/>
</clipPath>
</defs>
</svg>
