<svg width="40" height="40" viewBox="0 0 40 40" fill="none" xmlns="http://www.w3.org/2000/svg">
<path d="M26.6667 15V8.33334L40 20L26.6667 31.6667V25H13.3333V15H26.6667ZM23.3333 31.6667V31.5283C21.37 32.67 19.0967 33.3333 16.6667 33.3333C9.315 33.3333 3.33333 27.3517 3.33333 20C3.33333 12.6483 9.315 6.66668 16.6667 6.66668C19.0967 6.66668 21.37 7.33001 23.3333 8.47168V4.73001C21.29 3.83668 19.0383 3.33334 16.6667 3.33334C7.46333 3.33334 0 10.795 0 20C0 29.205 7.46333 36.6667 16.6667 36.6667C19.0383 36.6667 21.29 36.1633 23.3333 35.27V31.6667Z" fill="black"/>
</svg>
