<svg width="50" height="50" viewBox="0 0 50 50" fill="none" xmlns="http://www.w3.org/2000/svg">
<g clip-path="url(#clip0)">
<path d="M50 9.49377C48.1604 10.3104 46.1833 10.8604 44.1083 11.1083C46.2271 9.8396 47.8542 7.82918 48.6187 5.43335C46.6375 6.60835 44.4417 7.46252 42.1042 7.92293C40.2354 5.92918 37.5667 4.68335 34.6167 4.68335C27.9937 4.68335 23.1271 10.8625 24.6229 17.2771C16.1 16.85 8.54167 12.7667 3.48125 6.56043C0.79375 11.1709 2.0875 17.2021 6.65417 20.2563C4.975 20.2021 3.39167 19.7417 2.01042 18.9729C1.89792 23.725 5.30417 28.1709 10.2375 29.1604C8.79375 29.5521 7.2125 29.6438 5.60417 29.3354C6.90833 33.4104 10.6958 36.375 15.1875 36.4584C10.875 39.8396 5.44167 41.35 0 40.7084C4.53958 43.6188 9.93333 45.3167 15.725 45.3167C34.7708 45.3167 45.5312 29.2313 44.8812 14.8042C46.8854 13.3563 48.625 11.55 50 9.49377Z" fill="white"/>
</g>
<defs>
<clipPath id="clip0">
<rect width="50" height="50" fill="white"/>
</clipPath>
</defs>
</svg>
